<svg xmlns="http://www.w3.org/2000/svg" viewBox="0 0 580 290" width="580" height="290" role="img" aria-labelledby="title desc">
<title id="title">P13 fictional SOP revision desk architecture</title>
<desc id="desc">Fictional SOP JSON is checked by Python. Python supplies a browser review view and local JSON receipts. No model or external system is in this path.</desc>
<defs>
<pattern id="dots" width="16" height="16" patternUnits="userSpaceOnUse"><circle cx="2" cy="2" r="1.3" fill="#385165"/></pattern>
<marker id="arrow" viewBox="0 0 8 8" refX="7" refY="4" markerWidth="7" markerHeight="7" orient="auto"><path d="M0 0 8 4 0 8" fill="#a8becd"/></marker>
</defs>
<rect width="580" height="290" rx="20" fill="#10283a"/><rect width="580" height="290" rx="20" fill="url(#dots)"/>
<path d="M155 145 C180 145 180 145 205 145 M335 145 C362 145 362 77 390 77 M335 145 C362 145 362 212 390 212" fill="none" stroke="#a8becd" stroke-width="2.4" marker-end="url(#arrow)"/>
<g fill="#f9fcfe" stroke="#d5e1e7" stroke-width="1.5">
<rect x="20" y="92" width="135" height="106" rx="16"/>
<rect x="205" y="92" width="130" height="106" rx="16"/>
<rect x="390" y="24" width="160" height="106" rx="16"/>
<rect x="390" y="159" width="160" height="106" rx="16"/>
</g>
<g fill="none" stroke="#226985" stroke-width="3.2" stroke-linecap="round" stroke-linejoin="round">
<path d="M65 124h45v33H65z M72 118h32 M72 162h32"/><path d="M75 139l-5 5 5 5 M100 139l5 5-5 5"/>
<path d="M257 119c-12 0-18 7-18 17h17v9h-20c0 11 7 18 19 18h19c12 0 18-7 18-17h-17v-9h20c0-11-7-18-19-18z"/><circle cx="250" cy="128" r="2" fill="#226985" stroke="none"/><circle cx="284" cy="154" r="2" fill="#226985" stroke="none"/>
<rect x="443" y="47" width="54" height="43" rx="5"/><path d="M443 59h54 M452 53h1 M460 53h1"/>
<path d="M449 178h45v37h-45z M456 171h31 M456 221h31"/><path d="M458 190h27 M458 199h21"/>
</g>
<g fill="#183b50" font-family="Arial, sans-serif" font-size="17" font-weight="700" text-anchor="middle">
<text x="87" y="184">SOP JSON</text><text x="270" y="184">Python</text>
<text x="470" y="117">Browser</text><text x="470" y="252">Receipt JSON</text>
</g>
</svg>